<svg xmlns="http://www.w3.org/2000/svg" xmlns:xlink="http://www.w3.org/1999/xlink" width="557" height="77" version="1.1" viewBox="0 0 557 77"><title>map_withdraw_no_id</title><desc>Created with Sketch.</desc><g id="map_withdraw_no_id" fill="none" fill-rule="evenodd" stroke="none" stroke-width="1"><circle id="Oval-Copy-3" cx="523" cy="57" r="5" fill="#9E9E9E"/><circle id="Oval-Copy-2" cx="523" cy="57" r="7" stroke="#9E9E9E"/><g id="Group-2" stroke="#FCFCFF" stroke-linecap="round" stroke-linejoin="round" transform="translate(519.000000, 53.000000)"><path id="Line-5" d="M1.5,1.5 L1.5,6.5"/><path id="Line-5" d="M3.5,1.5 L1.5,1.5"/><path id="Line-5" d="M3.5,6.5 L1.5,6.5"/><g id="Group" transform="translate(3.000000, 2.000000)"><path id="Line-5" d="M0,2 L3,2"/><path id="Line" d="M3.5,2 L2.5,0.5"/><path id="Line" d="M3.5,2 L2.5,3.5"/></g></g><text id="WITHDRAWN" fill="#9E9E9E" font-family="Open Sans, sans-serif" font-size="10" font-weight="500"><tspan x="491.545" y="76">WITHDRAWN</tspan></text><polyline id="Path-3" stroke="#10C903" stroke-linecap="round" stroke-linejoin="round" stroke-width="2" points="115 59 119.019 55 123 59" transform="translate(119.000000, 57.000000) rotate(-270.000000) translate(-119.000000, -57.000000)"/><polyline id="Path-3-Copy" stroke="#10C903" stroke-linecap="round" stroke-linejoin="round" stroke-width="2" points="276 59 280.019 55 284 59" transform="translate(280.000000, 57.000000) rotate(-270.000000) translate(-280.000000, -57.000000)"/><polyline id="Path-3-Copy" stroke="#9E9E9E" stroke-linecap="round" stroke-linejoin="round" stroke-width="2" points="437 59 441.019 55 445 59" transform="translate(441.000000, 57.000000) rotate(-270.000000) translate(-441.000000, -57.000000)"/><path id="Path-2" stroke="#10C903" stroke-width="2" d="M37.8688234,19.0791446 L37.8688234,47 C37.8688234,52.5228475 42.3459759,57 47.8688234,57 L361,57"/><path id="Line-2" stroke="#F4F7FA" stroke-linecap="square" stroke-width="2" d="M361,19 L361,58"/><path id="Line-2" stroke="#F4F7FA" stroke-linecap="square" stroke-width="2" d="M38,19 L199.500774,19"/><path id="Line-2" stroke="#F4F7FA" stroke-linecap="square" stroke-width="2" d="M198.499233,19 L361.500585,19"/><path id="Line-2" stroke="#F4F7FA" stroke-linecap="square" stroke-width="2" d="M360.499228,19 L522.500473,19"/><path id="Line-2" stroke="#9E9E9E" stroke-dasharray="1 5" stroke-linecap="square" stroke-width="2" d="M361.499224,57 L515,57"/><circle id="Oval" cx="38" cy="19" r="5" fill="#3434CE"/><circle id="Oval-Copy" cx="199" cy="19" r="5" fill="#FFF" stroke="#F4F7FA" stroke-width="2"/><circle id="Oval-Copy-2" cx="361" cy="19" r="5" fill="#FFF" stroke="#F4F7FA" stroke-width="2"/><circle id="Oval-Copy-3" cx="523" cy="19" r="5" fill="#FFF" stroke="#F4F7FA" stroke-width="2"/><text id="IN-APPLICATION" fill="#3434CE" font-family="Open Sans, sans-serif" font-size="10" font-weight="500"><tspan x="-.267" y="8">IN APPLICATION</tspan></text><text id="VOTING-COMMIT" fill="#424242" font-family="Open Sans, sans-serif" font-size="10" font-weight="normal"><tspan x="159.822" y="8">VOTING COMMIT</tspan></text><text id="VOTING-REVEAL" fill="#424242" font-family="Open Sans, sans-serif" font-size="10" font-weight="normal"><tspan x="324.071" y="8">VOTING REVEAL</tspan></text><text id="IN-REGISTRY" fill="#10C903" font-family="Open Sans, sans-serif" font-size="10" font-weight="500"><tspan x="331.383" y="76">IN REGISTRY</tspan></text><text id="REJECTED" fill="#424242" font-family="Open Sans, sans-serif" font-size="10" font-weight="normal"><tspan x="500.366" y="8">REJECTED</tspan></text><circle id="Oval-Copy-2" cx="361" cy="57" r="5" fill="#10C903"/></g></svg>