<svg xmlns="http://www.w3.org/2000/svg" xmlns:xlink="http://www.w3.org/1999/xlink" width="557" height="77" version="1.1" viewBox="0 0 557 77"><title>map_registry_no_id_registry</title><desc>Created with Sketch.</desc><g id="map_registry_no_id_registry" fill="none" fill-rule="evenodd" stroke="none" stroke-width="1"><path id="Line-2" stroke="#10C903" stroke-linecap="square" stroke-width="2" d="M361,19 L361,58"/><polyline id="Path-3-Copy" stroke="#10C903" stroke-linecap="round" stroke-linejoin="round" stroke-width="2" points="357 40 361.019 36 365 40" transform="translate(361.000000, 38.000000) rotate(-180.000000) translate(-361.000000, -38.000000)"/><path id="Line-2" stroke="#3434CE" stroke-linecap="square" stroke-width="2" d="M198.499233,19 L361.500585,19"/><polyline id="Path-3-Copy" stroke="#3434CE" stroke-linecap="round" stroke-linejoin="round" stroke-width="2" points="276 21 280.019 17 284 21" transform="translate(280.000000, 19.000000) rotate(-270.000000) translate(-280.000000, -19.000000)"/><path id="Path-2" stroke="#F4F7FA" stroke-width="2" d="M37.8688234,19.0791446 L37.8688234,47 C37.8688234,52.5228475 42.3459759,57 47.8688234,57 L361,57"/><path id="Line-2" stroke="#F4F7FA" stroke-linecap="square" stroke-width="2" d="M38,19 L199.500774,19"/><path id="Line-2" stroke="#F4F7FA" stroke-linecap="square" stroke-width="2" d="M360.499228,19 L522.500473,19"/><path id="Line-2" stroke="#3434CE" stroke-linecap="square" stroke-width="2" d="M199.123005,19 L360.811739,57.5477831"/><text id="challenged" fill="#CE3434" font-family="Open Sans, sans-serif" font-size="10" font-style="italic" font-weight="300" transform="translate(272.985169, 43.994465) rotate(13.000000) translate(-272.985169, -43.994465)"><tspan x="250.317" y="47.994">challenged</tspan></text><path id="Line-2" stroke="#F4F7FA" stroke-dasharray="1 5" stroke-linecap="square" stroke-width="2" d="M361.499224,57 L522.504253,57"/><circle id="Oval" cx="38" cy="19" r="5" fill="#3434CE"/><circle id="Oval-Copy" cx="199" cy="19" r="5" fill="#3434CE"/><circle id="Oval-Copy-2" cx="361" cy="19" r="5" fill="#3434CE"/><circle id="Oval-Copy-2" cx="361" cy="57" r="5" fill="#10C903"/><circle id="Oval-Copy-3" cx="523" cy="19" r="5" fill="#FFF" stroke="#F4F7FA" stroke-width="2"/><circle id="Oval-Copy-3" cx="523" cy="57" r="5" fill="#FFF" stroke="#F4F7FA" stroke-width="2"/><text id="IN-APPLICATION" fill="#3434CE" font-family="Open Sans, sans-serif" font-size="10" font-weight="500"><tspan x="-.267" y="8">IN APPLICATION</tspan></text><text id="VOTING-COMMIT" fill="#3434CE" font-family="Open Sans, sans-serif" font-size="10" font-weight="500"><tspan x="158.863" y="8">VOTING COMMIT</tspan></text><text id="VOTING-REVEAL" fill="#3434CE" font-family="Open Sans, sans-serif" font-size="10" font-weight="500"><tspan x="323.048" y="8">VOTING REVEAL</tspan></text><text id="IN-REGISTRY" fill="#10C903" font-family="Open Sans, sans-serif" font-size="10" font-weight="500"><tspan x="331.383" y="76">IN REGISTRY</tspan></text><text id="WITHDRAWN" fill="#424242" font-family="Open Sans, sans-serif" font-size="10" font-weight="normal"><tspan x="492.424" y="76">WITHDRAWN</tspan></text><text id="REJECTED" fill="#424242" font-family="Open Sans, sans-serif" font-size="10" font-weight="normal"><tspan x="500.366" y="8">REJECTED</tspan></text><polyline id="Path-3-Copy" stroke="#3434CE" stroke-linecap="round" stroke-linejoin="round" stroke-width="2" points="276 40 280.019 36 284 40" transform="translate(280.000000, 38.000000) rotate(-79.000000) translate(-280.000000, -38.000000)"/><polyline id="Path-5" stroke="#FFF" stroke-linecap="round" stroke-linejoin="round" points="359 57.619 360.873 59.599 363.491 55"/><circle id="Oval-Copy-2" cx="361" cy="57" r="7" stroke="#10C903"/></g></svg>