<svg xmlns="http://www.w3.org/2000/svg" xmlns:xlink="http://www.w3.org/1999/xlink" id="Layer_1" x="0" y="0" version="1.1" viewBox="0 0 729 298.9" xml:space="preserve" style="enable-background:new 0 0 729 298.9"><style type="text/css">.st1{fill:#1e4da7}.st2{fill:url(#SVGID_1_)}.st3{fill:url(#SVGID_2_)}.st4{fill:url(#SVGID_3_)}.st5{fill:url(#SVGID_4_)}.st6{fill:url(#SVGID_5_)}.st7{fill:url(#SVGID_6_)}.st8{fill:url(#SVGID_7_)}.st9{fill:url(#SVGID_8_)}.st10{fill:url(#SVGID_9_)}.st11{fill:url(#SVGID_10_)}.st12{fill:url(#SVGID_11_)}.st13{fill:url(#SVGID_12_)}.st14{fill:url(#SVGID_13_)}.st15{fill:url(#SVGID_14_)}.st16{fill:url(#SVGID_15_)}.st17{fill:url(#SVGID_16_)}.st18{fill:url(#SVGID_17_)}.st19{fill:url(#SVGID_18_)}.st20{fill:url(#SVGID_19_)}.st21{fill:url(#SVGID_20_)}.st22{fill:url(#SVGID_21_)}.st23{fill:url(#SVGID_22_)}.st24{fill:url(#SVGID_23_)}.st25{fill:url(#SVGID_24_)}.st26{fill:url(#SVGID_25_)}.st27{fill:url(#SVGID_26_)}.st28{fill:url(#SVGID_27_)}.st29{fill:url(#SVGID_28_)}.st30{fill:url(#SVGID_29_)}.st31{fill:url(#SVGID_30_)}.st32{fill:url(#SVGID_31_)}.st33{fill:url(#SVGID_32_)}.st34{fill:#fafafa}</style><g><path d="M56.7,189.9c0,4,0,7.5,0,11.3c-16.5,0-32.8,0-49.3,0c0-3.8,0-7.4,0-11.3c5.3,0,10.3,0,15.4,0 c3.3,0,3.3,0,3.3-3.3c0-29.9,0-59.8,0-89.8c0-3.3,0-3.3-3.3-3.4c-5,0-10.2,0-15.3,0c0-3.7,0-7.3,0-11.1c0.7,0,1.3-0.1,2.1-0.1 c14,0,27.9,0,41.9,0c1.6,0,2.4,0.4,2.9,2c10.2,29.7,20.3,59.2,30.5,88.9c1.2,3.4,1.8,7,2.8,10.5c0.1,0.5,0.4,1.1,0.7,2 c1.3-4.7,2.4-9.1,3.8-13.3c10-29.3,20.2-58.4,30.3-87.7c0.7-1.7,1.3-2.5,3.3-2.5c13.8,0.1,27.8,0.1,41.7,0c2.1,0,2.8,0.7,2.6,2.6 c-0.1,2.8,0,5.5,0,8.6c-4.6,0-9,0-13.2,0c-5.7,0-5.7,0-5.7,5.7c0,29.1,0,58.3,0,87.4c0,1.1,0,2,0,3.3c4.9,0,9.5,0,14.1,0 c4.7,0,4.7,0,4.7,4.7c0,6.7,0,6.7-6.7,6.7c-14,0-27.9,0-41.9,0c-2,0-2.9-0.4-2.8-2.6c0.1-2.9,0-5.8,0-9c5,0,9.8-0.1,14.5,0 c2.1,0.1,2.6-0.7,2.6-2.6c0-30.6,0-61.2,0-91.6c0-0.3,0-0.5,0-0.7c-0.3-0.7-0.5-1.2-0.8-1.8c-0.5,0.4-1.3,0.8-1.6,1.5 c-2.4,6.2-4.6,12.4-6.9,18.7c-10.4,28.9-21,57.6-31.4,86.5c-0.5,1.3-1.2,1.8-2.5,1.8c-3.3-0.1-6.6-0.1-9.9,0 c-1.5,0-2.2-0.4-2.8-1.8c-8.3-23.2-16.7-46.4-25-69.6c-4.2-11.6-8.4-23.3-12.7-34.9c-0.3-0.7-0.9-1.3-1.5-1.8 c-0.3,0.8-0.9,1.6-0.9,2.4c0,30.6,0,61.3-0.1,91.9c0,2.1,0.7,2.6,2.8,2.6C47,189.8,51.8,189.9,56.7,189.9z" class="st34"/><path d="M417.7,188.3c5.1,0,10,0,15,0c0,3.7,0,7,0,10.5c-9.2,0-18.5,0-28.1,0c0-5.4,0-10.7,0-16 c-0.3,0-0.4-0.1-0.7-0.1c-0.7,1.3-1.3,2.6-2,3.8c-4.7,9.1-12.8,13.2-22.5,14.2c-6.6,0.7-13.1,0.4-19.4-1.5 c-20.4-5.7-20.8-28.6-12.8-39c5-6.5,12-9.4,19.8-10.4c11.1-1.6,22.1-1.7,33.2-1.1c0.7,0,1.5,0,2.1,0c0.3,0,0.4-0.1,1.2-0.4 c-0.4-4.4-0.3-9-1.2-13.4c-1.2-5.3-5.3-8-10.3-9.4c-6.7-1.8-13.6-1.7-20.3,0.3c-6.5,1.8-10.2,6.3-11.2,13.1c-4.9,0-9.8,0-15,0 c0.7-5.9,2.5-11.3,6.5-15.8c4.9-5.4,11.2-7.9,18.1-8.8c10.2-1.5,20.3-1.6,30.2,1.6c10.7,3.4,16.6,11.2,16.7,22.4 c0.3,15.6,0.3,31.2,0.4,46.9C417.7,186.1,417.7,187.1,417.7,188.3z M390.4,159.2c0-0.1,0-0.1,0-0.3c-1.3,0-2.5,0-3.8,0 c-6.1,0.1-12.1,0.3-17.9,2.2c-10,3.4-14,14.1-8.2,22.4c3,4.5,7.8,5.9,12.9,6.3c8.4,0.7,16.3-1.1,22.7-7.1c6.2-6.1,7-14,7.6-22 c0-0.4-1.2-1.5-1.7-1.5C398.2,159.2,394.3,159.2,390.4,159.2z" class="st34"/><path d="M192.6,160.6c-0.1,10.2,4.6,21,14.4,25.8c9.5,4.7,19.4,4.9,29.1,1.1c5.5-2.1,9.5-6.2,11.3-12 c0.4-1.5,1.1-1.8,2.5-1.8c3.7,0.1,7.4,0,11.2,0c-2,10.3-7.5,17.5-16.2,22.4c-6.1,3.3-12.7,4.6-19.5,5c-7.8,0.4-15.4-0.1-22.8-2.8 c-11.5-4.2-18.9-12.7-22.5-23.9c-4.4-12.9-3.6-26,2-38.5c4.5-10.3,12.5-17.1,23.3-20.3c10.4-3,21-3,31.5,0 c10.8,3.2,18.2,10.2,22.1,20.6c3,7.8,3.8,15.8,3.6,24.4C239,160.6,215.9,160.6,192.6,160.6z M247.3,149.8c-0.5-8.3-3-15.4-9.9-20.4 c-5.4-4-11.6-5-18.2-4.7c-9,0.4-16.3,3.8-21.5,11.3c-2.8,4.1-4.5,8.7-4.7,13.8C211.3,149.8,229.2,149.8,247.3,149.8z" class="st34"/><path d="M285.5,115.4c0-5.1,0.3-10-0.1-14.9c-0.1-2.9,0.9-4.2,3.6-5c3.7-1.1,7.3-2.5,11.2-3.8c0,8,0,15.7,0,23.6 c9.2,0,18.2,0,27.3,0c0,3.7,0,7,0,10.5c-0.9,0-1.7,0.1-2.5,0.1c-7.5,0-15,0-22.5,0c-1.6,0-2.2,0.4-2.2,2.1c0,17.4,0,34.8,0.1,52.1 c0,5,2.8,8.4,7,9.4c4.5,1.1,8.8-0.5,10.5-4.2c0.9-1.8,1.2-4.1,1.6-6.2c0.3-1.7,0.4-3.6,0.5-5.5c3.7,0,7.3,0,10.7,0 c1.6,14-3.7,25.8-19.5,27.2c-3,0.3-6.2,0.3-9.1-0.3c-10.2-1.8-16-8.6-16.1-18.9c-0.3-17.4-0.3-34.9-0.4-52.3c0-1.1,0-2,0-3.3 c-5.7,0-11.1,0-16.5,0c0-3.7,0-7,0-10.7C274.4,115.4,279.8,115.4,285.5,115.4z" class="st34"/></g><g><rect width="20.4" height="20.4" x="650.3" y="267.4" class="st1" transform="matrix(0.7071 -0.7071 0.7071 0.7071 -2.8662 548.3781)"/><g><linearGradient id="SVGID_1_" x1="-550.442" x2="-617.511" y1="218.811" y2="287.158" gradientTransform="matrix(0.7071 -0.7071 0.7071 0.7071 872.4654 -364.2194)" gradientUnits="userSpaceOnUse"><stop offset="0" style="stop-color:#4ee7d6"/><stop offset="1" style="stop-color:#1649ab"/></linearGradient><polygon points="638.7 270.7 653.1 255.9 638.7 241.5 624.3 255.9" class="st2"/><linearGradient id="SVGID_2_" x1="-565.542" x2="-632.611" y1="203.993" y2="272.34" gradientTransform="matrix(0.7071 -0.7071 0.7071 0.7071 872.4654 -364.2194)" gradientUnits="userSpaceOnUse"><stop offset="0" style="stop-color:#4ee7d6"/><stop offset="1" style="stop-color:#1649ab"/></linearGradient><polygon points="617.3 248.9 631.7 234.5 617.3 220.1 602.9 234.5" class="st3"/><linearGradient id="SVGID_3_" x1="-580.97" x2="-648.039" y1="188.853" y2="257.2" gradientTransform="matrix(0.7071 -0.7071 0.7071 0.7071 872.4654 -364.2194)" gradientUnits="userSpaceOnUse"><stop offset="0" style="stop-color:#4ee7d6"/><stop offset="1" style="stop-color:#1649ab"/></linearGradient><polygon points="595.5 227.1 609.9 212.7 595.5 198.3 581.1 212.7" class="st4"/><linearGradient id="SVGID_4_" x1="-596.683" x2="-663.752" y1="173.435" y2="241.782" gradientTransform="matrix(0.7071 -0.7071 0.7071 0.7071 872.4654 -364.2194)" gradientUnits="userSpaceOnUse"><stop offset="0" style="stop-color:#4ee7d6"/><stop offset="1" style="stop-color:#1649ab"/></linearGradient><polygon points="573.7 247.5 588.1 233.1 573.7 218.7 559.3 233.1" class="st5"/><linearGradient id="SVGID_5_" x1="-643.063" x2="-710.133" y1="127.921" y2="196.267" gradientTransform="matrix(0.7071 -0.7071 0.7071 0.7071 872.4654 -364.2194)" gradientUnits="userSpaceOnUse"><stop offset="0" style="stop-color:#4ee7d6"/><stop offset="1" style="stop-color:#1649ab"/></linearGradient><polygon points="509.1 270.7 523.5 255.9 509.1 241.5 494.3 255.9" class="st6"/><linearGradient id="SVGID_6_" x1="-627.511" x2="-694.58" y1="143.183" y2="211.53" gradientTransform="matrix(0.7071 -0.7071 0.7071 0.7071 872.4654 -364.2194)" gradientUnits="userSpaceOnUse"><stop offset="0" style="stop-color:#4ee7d6"/><stop offset="1" style="stop-color:#1649ab"/></linearGradient><polygon points="530.5 248.9 544.9 234.5 530.5 220.1 516.1 234.5" class="st7"/><linearGradient id="SVGID_7_" x1="-611.788" x2="-678.857" y1="158.611" y2="226.958" gradientTransform="matrix(0.7071 -0.7071 0.7071 0.7071 872.4654 -364.2194)" gradientUnits="userSpaceOnUse"><stop offset="0" style="stop-color:#4ee7d6"/><stop offset="1" style="stop-color:#1649ab"/></linearGradient><polygon points="552.3 198.3 537.9 212.7 552.3 227.1 566.7 212.7" class="st8"/><linearGradient id="SVGID_8_" x1="-596.401" x2="-663.47" y1="173.711" y2="242.058" gradientTransform="matrix(0.7071 -0.7071 0.7071 0.7071 872.4654 -364.2194)" gradientUnits="userSpaceOnUse"><stop offset="0" style="stop-color:#4ee7d6"/><stop offset="1" style="stop-color:#1649ab"/></linearGradient><polygon points="559.3 191.3 573.7 205.7 588.1 191.3 573.7 176.5" class="st9"/></g><rect width="20.4" height="20.4" x="693.4" y="267.5" class="st1" transform="matrix(0.7071 -0.7071 0.7071 0.7071 9.7332 578.891)"/><rect width="20.4" height="20.4" x="672.1" y="245.5" class="st1" transform="matrix(0.7071 -0.7071 0.7071 0.7071 19.0582 557.3748)"/><rect width="20.4" height="20.4" x="650.4" y="224.3" class="st1" transform="matrix(0.7071 -0.7071 0.7071 0.7071 27.6467 535.7787)"/><rect width="20.4" height="20.4" x="693.5" y="224.3" class="st1" transform="matrix(0.7071 -0.7071 0.7071 0.7071 40.2461 566.2916)"/><g><linearGradient id="SVGID_9_" x1="-595.007" x2="-526.66" y1="217.932" y2="290.112" gradientTransform="matrix(0.7071 -0.7071 0.7071 0.7071 872.4654 -364.2194)" gradientUnits="userSpaceOnUse"><stop offset="0" style="stop-color:#f7bd44"/><stop offset="1" style="stop-color:#1649ab"/></linearGradient><polygon points="681.9 227.1 696.7 212.7 681.9 198.3 667.5 212.7" class="st10"/><linearGradient id="SVGID_10_" x1="-579.758" x2="-511.411" y1="203.494" y2="275.673" gradientTransform="matrix(0.7071 -0.7071 0.7071 0.7071 872.4654 -364.2194)" gradientUnits="userSpaceOnUse"><stop offset="0" style="stop-color:#f7bd44"/><stop offset="1" style="stop-color:#1649ab"/></linearGradient><polygon points="660.5 205.7 674.9 191.3 660.5 176.5 646.1 191.3" class="st11"/><linearGradient id="SVGID_11_" x1="-564.519" x2="-496.172" y1="189.064" y2="261.243" gradientTransform="matrix(0.7071 -0.7071 0.7071 0.7071 872.4654 -364.2194)" gradientUnits="userSpaceOnUse"><stop offset="0" style="stop-color:#f7bd44"/><stop offset="1" style="stop-color:#1649ab"/></linearGradient><polygon points="638.7 183.9 653.1 169.5 638.7 155.1 624.3 169.5" class="st12"/><linearGradient id="SVGID_12_" x1="-548.274" x2="-479.928" y1="173.682" y2="245.861" gradientTransform="matrix(0.7071 -0.7071 0.7071 0.7071 872.4654 -364.2194)" gradientUnits="userSpaceOnUse"><stop offset="0" style="stop-color:#f7bd44"/><stop offset="1" style="stop-color:#1649ab"/></linearGradient><polygon points="659.1 162.1 673.5 147.7 659.1 133.3 644.7 147.7" class="st13"/><linearGradient id="SVGID_13_" x1="-549.102" x2="-480.755" y1="174.465" y2="246.645" gradientTransform="matrix(0.7071 -0.7071 0.7071 0.7071 872.4654 -364.2194)" gradientUnits="userSpaceOnUse"><stop offset="0" style="stop-color:#f7bd44"/><stop offset="1" style="stop-color:#1649ab"/></linearGradient><polygon points="617.3 162.1 631.7 147.7 617.3 133.3 602.9 147.7" class="st14"/><linearGradient id="SVGID_14_" x1="-533.176" x2="-464.829" y1="159.385" y2="231.565" gradientTransform="matrix(0.7071 -0.7071 0.7071 0.7071 872.4654 -364.2194)" gradientUnits="userSpaceOnUse"><stop offset="0" style="stop-color:#f7bd44"/><stop offset="1" style="stop-color:#1649ab"/></linearGradient><polygon points="638.7 140.7 653.1 126.3 638.7 111.9 624.3 126.3" class="st15"/><linearGradient id="SVGID_15_" x1="-516.904" x2="-448.557" y1="143.977" y2="216.156" gradientTransform="matrix(0.7071 -0.7071 0.7071 0.7071 872.4654 -364.2194)" gradientUnits="userSpaceOnUse"><stop offset="0" style="stop-color:#f7bd44"/><stop offset="1" style="stop-color:#1649ab"/></linearGradient><polygon points="660.5 118.9 674.9 104.5 660.5 90.1 646.1 104.5" class="st16"/><linearGradient id="SVGID_16_" x1="-500.81" x2="-432.463" y1="128.738" y2="200.917" gradientTransform="matrix(0.7071 -0.7071 0.7071 0.7071 872.4654 -364.2194)" gradientUnits="userSpaceOnUse"><stop offset="0" style="stop-color:#f7bd44"/><stop offset="1" style="stop-color:#1649ab"/></linearGradient><polygon points="667.5 82.7 681.9 97.5 696.7 82.7 681.9 68.3" class="st17"/></g><rect width="20.4" height="20.4" x="434" y="267.4" class="st1" transform="matrix(0.7071 -0.7071 0.7071 0.7071 -66.1932 395.4046)"/><rect width="20.4" height="20.4" x="477.1" y="267.4" class="st1" transform="matrix(0.7071 -0.7071 0.7071 0.7071 -53.5935 425.9174)"/><rect width="20.4" height="20.4" x="455.2" y="245.6" class="st1" transform="matrix(0.7071 -0.7071 0.7071 0.7071 -44.597 403.9934)"/><rect width="20.4" height="20.4" x="434" y="224.3" class="st1" transform="matrix(0.7071 -0.7071 0.7071 0.7071 -35.6801 382.8048)"/><rect width="20.4" height="20.4" x="477.2" y="224.3" class="st1" transform="matrix(0.7071 -0.7071 0.7071 0.7071 -23.0806 413.3181)"/><g><linearGradient id="SVGID_17_" x1="-643.443" x2="-714.984" y1="171.028" y2="101.404" gradientTransform="matrix(0.7071 -0.7071 0.7071 0.7071 872.4654 -364.2194)" gradientUnits="userSpaceOnUse"><stop offset="0" style="stop-color:#d775de"/><stop offset="1" style="stop-color:#1649ab"/></linearGradient><polygon points="465.5 227.1 479.9 212.7 465.5 198.3 451.1 212.7" class="st18"/><linearGradient id="SVGID_18_" x1="-628.593" x2="-700.134" y1="155.77" y2="86.145" gradientTransform="matrix(0.7071 -0.7071 0.7071 0.7071 872.4654 -364.2194)" gradientUnits="userSpaceOnUse"><stop offset="0" style="stop-color:#d775de"/><stop offset="1" style="stop-color:#1649ab"/></linearGradient><polygon points="487.3 205.7 501.7 191.3 487.3 176.5 472.9 191.3" class="st19"/><linearGradient id="SVGID_19_" x1="-613.744" x2="-685.284" y1="140.511" y2="70.886" gradientTransform="matrix(0.7071 -0.7071 0.7071 0.7071 872.4654 -364.2194)" gradientUnits="userSpaceOnUse"><stop offset="0" style="stop-color:#d775de"/><stop offset="1" style="stop-color:#1649ab"/></linearGradient><polygon points="509.1 183.9 523.5 169.5 509.1 155.1 494.3 169.5" class="st20"/><linearGradient id="SVGID_20_" x1="-598.727" x2="-670.268" y1="125.081" y2="55.457" gradientTransform="matrix(0.7071 -0.7071 0.7071 0.7071 872.4654 -364.2194)" gradientUnits="userSpaceOnUse"><stop offset="0" style="stop-color:#d775de"/><stop offset="1" style="stop-color:#1649ab"/></linearGradient><polygon points="530.5 162.1 544.9 147.7 530.5 133.3 516.1 147.7" class="st21"/><linearGradient id="SVGID_21_" x1="-598.318" x2="-669.859" y1="124.661" y2="55.037" gradientTransform="matrix(0.7071 -0.7071 0.7071 0.7071 872.4654 -364.2194)" gradientUnits="userSpaceOnUse"><stop offset="0" style="stop-color:#d775de"/><stop offset="1" style="stop-color:#1649ab"/></linearGradient><polygon points="487.3 162.1 501.7 147.7 487.3 133.3 472.9 147.7" class="st22"/><linearGradient id="SVGID_22_" x1="-583.63" x2="-655.171" y1="109.569" y2="39.944" gradientTransform="matrix(0.7071 -0.7071 0.7071 0.7071 872.4654 -364.2194)" gradientUnits="userSpaceOnUse"><stop offset="0" style="stop-color:#d775de"/><stop offset="1" style="stop-color:#1649ab"/></linearGradient><polygon points="509.1 140.7 523.5 126.3 509.1 111.9 494.3 126.3" class="st23"/><linearGradient id="SVGID_23_" x1="-568.205" x2="-639.746" y1="93.719" y2="24.095" gradientTransform="matrix(0.7071 -0.7071 0.7071 0.7071 872.4654 -364.2194)" gradientUnits="userSpaceOnUse"><stop offset="0" style="stop-color:#d775de"/><stop offset="1" style="stop-color:#1649ab"/></linearGradient><polygon points="487.3 118.9 501.7 104.5 487.3 90.1 472.9 104.5" class="st24"/><linearGradient id="SVGID_24_" x1="-552.942" x2="-624.482" y1="78.036" y2="8.412" gradientTransform="matrix(0.7071 -0.7071 0.7071 0.7071 872.4654 -364.2194)" gradientUnits="userSpaceOnUse"><stop offset="0" style="stop-color:#d775de"/><stop offset="1" style="stop-color:#1649ab"/></linearGradient><polygon points="451.1 82.7 465.5 97.5 479.9 82.7 465.5 68.3" class="st25"/></g><rect width="20.4" height="20.4" x="434" y="51.1" class="st1" transform="matrix(0.7071 -0.7071 0.7071 0.7071 86.7807 332.0778)"/><rect width="20.4" height="20.4" x="477.2" y="51.1" class="st1" transform="matrix(0.7071 -0.7071 0.7071 0.7071 99.3798 362.5909)"/><rect width="20.4" height="20.4" x="455.2" y="29.3" class="st1" transform="matrix(0.7071 -0.7071 0.7071 0.7071 108.3765 340.6664)"/><rect width="20.4" height="20.4" x="434.1" y="7.9" class="st1" transform="matrix(0.7071 -0.7071 0.7071 0.7071 117.2935 319.4781)"/><g><linearGradient id="SVGID_25_" x1="-566.806" x2="-493.349" y1="113.633" y2="41.454" gradientTransform="matrix(0.7071 -0.7071 0.7071 0.7071 872.4654 -364.2194)" gradientUnits="userSpaceOnUse"><stop offset="0" style="stop-color:#da6699"/><stop offset=".144" style="stop-color:#d66599"/><stop offset=".287" style="stop-color:#ca649a"/><stop offset=".43" style="stop-color:#b6619c"/><stop offset=".573" style="stop-color:#9a5d9f"/><stop offset=".716" style="stop-color:#7657a2"/><stop offset=".858" style="stop-color:#4a51a6"/><stop offset=".998" style="stop-color:#1749ab"/><stop offset="1" style="stop-color:#1649ab"/></linearGradient><polygon points="552.3 97.5 566.7 82.7 552.3 68.3 537.9 82.7" class="st26"/><linearGradient id="SVGID_26_" x1="-582.232" x2="-508.775" y1="97.934" y2="25.755" gradientTransform="matrix(0.7071 -0.7071 0.7071 0.7071 872.4654 -364.2194)" gradientUnits="userSpaceOnUse"><stop offset="0" style="stop-color:#da6699"/><stop offset=".144" style="stop-color:#d66599"/><stop offset=".287" style="stop-color:#ca649a"/><stop offset=".43" style="stop-color:#b6619c"/><stop offset=".573" style="stop-color:#9a5d9f"/><stop offset=".716" style="stop-color:#7657a2"/><stop offset=".858" style="stop-color:#4a51a6"/><stop offset=".998" style="stop-color:#1749ab"/><stop offset="1" style="stop-color:#1649ab"/></linearGradient><polygon points="530.5 75.7 544.9 61.3 530.5 46.9 516.1 61.3" class="st27"/><linearGradient id="SVGID_27_" x1="-597.498" x2="-524.041" y1="82.398" y2="10.219" gradientTransform="matrix(0.7071 -0.7071 0.7071 0.7071 872.4654 -364.2194)" gradientUnits="userSpaceOnUse"><stop offset="0" style="stop-color:#da6699"/><stop offset=".144" style="stop-color:#d66599"/><stop offset=".287" style="stop-color:#ca649a"/><stop offset=".43" style="stop-color:#b6619c"/><stop offset=".573" style="stop-color:#9a5d9f"/><stop offset=".716" style="stop-color:#7657a2"/><stop offset=".858" style="stop-color:#4a51a6"/><stop offset=".998" style="stop-color:#1749ab"/><stop offset="1" style="stop-color:#1649ab"/></linearGradient><polygon points="509.1 53.9 523.5 39.5 509.1 25.1 494.3 39.5" class="st28"/><linearGradient id="SVGID_28_" x1="-551.703" x2="-478.246" y1="129.003" y2="56.824" gradientTransform="matrix(0.7071 -0.7071 0.7071 0.7071 872.4654 -364.2194)" gradientUnits="userSpaceOnUse"><stop offset="0" style="stop-color:#da6699"/><stop offset=".144" style="stop-color:#d66599"/><stop offset=".287" style="stop-color:#ca649a"/><stop offset=".43" style="stop-color:#b6619c"/><stop offset=".573" style="stop-color:#9a5d9f"/><stop offset=".716" style="stop-color:#7657a2"/><stop offset=".858" style="stop-color:#4a51a6"/><stop offset=".998" style="stop-color:#1749ab"/><stop offset="1" style="stop-color:#1649ab"/></linearGradient><polygon points="573.7 118.9 588.1 104.5 573.7 90.1 559.3 104.5" class="st29"/><linearGradient id="SVGID_29_" x1="-551.96" x2="-478.503" y1="128.742" y2="56.563" gradientTransform="matrix(0.7071 -0.7071 0.7071 0.7071 872.4654 -364.2194)" gradientUnits="userSpaceOnUse"><stop offset="0" style="stop-color:#da6699"/><stop offset=".144" style="stop-color:#d66599"/><stop offset=".287" style="stop-color:#ca649a"/><stop offset=".43" style="stop-color:#b6619c"/><stop offset=".573" style="stop-color:#9a5d9f"/><stop offset=".716" style="stop-color:#7657a2"/><stop offset=".858" style="stop-color:#4a51a6"/><stop offset=".998" style="stop-color:#1749ab"/><stop offset="1" style="stop-color:#1649ab"/></linearGradient><polygon points="573.7 48.3 559.3 62.7 573.7 77.1 588.1 62.7" class="st30"/><linearGradient id="SVGID_30_" x1="-536.543" x2="-463.086" y1="144.432" y2="72.252" gradientTransform="matrix(0.7071 -0.7071 0.7071 0.7071 872.4654 -364.2194)" gradientUnits="userSpaceOnUse"><stop offset="0" style="stop-color:#da6699"/><stop offset=".144" style="stop-color:#d66599"/><stop offset=".287" style="stop-color:#ca649a"/><stop offset=".43" style="stop-color:#b6619c"/><stop offset=".573" style="stop-color:#9a5d9f"/><stop offset=".716" style="stop-color:#7657a2"/><stop offset=".858" style="stop-color:#4a51a6"/><stop offset=".998" style="stop-color:#1749ab"/><stop offset="1" style="stop-color:#1649ab"/></linearGradient><polygon points="595.5 97.5 609.9 82.7 595.5 68.3 581.1 82.7" class="st31"/><linearGradient id="SVGID_31_" x1="-521.38" x2="-447.923" y1="159.863" y2="87.683" gradientTransform="matrix(0.7071 -0.7071 0.7071 0.7071 872.4654 -364.2194)" gradientUnits="userSpaceOnUse"><stop offset="0" style="stop-color:#da6699"/><stop offset=".144" style="stop-color:#d66599"/><stop offset=".287" style="stop-color:#ca649a"/><stop offset=".43" style="stop-color:#b6619c"/><stop offset=".573" style="stop-color:#9a5d9f"/><stop offset=".716" style="stop-color:#7657a2"/><stop offset=".858" style="stop-color:#4a51a6"/><stop offset=".998" style="stop-color:#1749ab"/><stop offset="1" style="stop-color:#1649ab"/></linearGradient><polygon points="617.3 75.7 631.7 61.3 617.3 46.9 602.9 61.3" class="st32"/><linearGradient id="SVGID_32_" x1="-506.545" x2="-433.089" y1="174.961" y2="102.781" gradientTransform="matrix(0.7071 -0.7071 0.7071 0.7071 872.4654 -364.2194)" gradientUnits="userSpaceOnUse"><stop offset="0" style="stop-color:#da6699"/><stop offset=".144" style="stop-color:#d66599"/><stop offset=".287" style="stop-color:#ca649a"/><stop offset=".43" style="stop-color:#b6619c"/><stop offset=".573" style="stop-color:#9a5d9f"/><stop offset=".716" style="stop-color:#7657a2"/><stop offset=".858" style="stop-color:#4a51a6"/><stop offset=".998" style="stop-color:#1749ab"/><stop offset="1" style="stop-color:#1649ab"/></linearGradient><polygon points="624.3 39.5 638.7 53.9 653.1 39.5 638.7 25.1" class="st33"/></g><rect width="20.4" height="20.4" x="477.2" y="8" class="st1" transform="matrix(0.7071 -0.7071 0.7071 0.7071 129.8929 349.9911)"/><rect width="20.4" height="20.4" x="650.3" y="51.1" class="st1" transform="matrix(0.7071 -0.7071 0.7071 0.7071 150.1074 485.0514)"/><rect width="20.4" height="20.4" x="693.5" y="51.2" class="st1" transform="matrix(0.7071 -0.7071 0.7071 0.7071 162.7064 515.5645)"/><rect width="20.4" height="20.4" x="672.2" y="29.1" class="st1" transform="matrix(0.7071 -0.7071 0.7071 0.7071 172.0318 494.0481)"/><rect width="20.4" height="20.4" x="650.4" y="8" class="st1" transform="matrix(0.7071 -0.7071 0.7071 0.7071 180.6205 472.4516)"/><rect width="20.4" height="20.4" x="693.5" y="8" class="st1" transform="matrix(0.7071 -0.7071 0.7071 0.7071 193.22 502.9648)"/></g></svg>