<svg xmlns="http://www.w3.org/2000/svg" xmlns:xlink="http://www.w3.org/1999/xlink" id="Layer_1" x="0" y="0" version="1.1" viewBox="0 0 729 282.9" xml:space="preserve" style="enable-background:new 0 0 729 282.9"><style type="text/css">.st1{fill:#1e4da7}.st2{fill:url(#SVGID_1_)}.st3{fill:url(#SVGID_2_)}.st4{fill:url(#SVGID_3_)}.st5{fill:url(#SVGID_4_)}.st6{fill:url(#SVGID_5_)}.st7{fill:url(#SVGID_6_)}.st8{fill:url(#SVGID_7_)}.st9{fill:url(#SVGID_8_)}.st10{fill:url(#SVGID_9_)}.st11{fill:url(#SVGID_10_)}.st12{fill:url(#SVGID_11_)}.st13{fill:url(#SVGID_12_)}.st14{fill:url(#SVGID_13_)}.st15{fill:url(#SVGID_14_)}.st16{fill:url(#SVGID_15_)}.st17{fill:url(#SVGID_16_)}.st18{fill:url(#SVGID_17_)}.st19{fill:url(#SVGID_18_)}.st20{fill:url(#SVGID_19_)}.st21{fill:url(#SVGID_20_)}.st22{fill:url(#SVGID_21_)}.st23{fill:url(#SVGID_22_)}.st24{fill:url(#SVGID_23_)}.st25{fill:url(#SVGID_24_)}.st26{fill:url(#SVGID_25_)}.st27{fill:url(#SVGID_26_)}.st28{fill:url(#SVGID_27_)}.st29{fill:url(#SVGID_28_)}.st30{fill:url(#SVGID_29_)}.st31{fill:url(#SVGID_30_)}.st32{fill:url(#SVGID_31_)}.st33{fill:url(#SVGID_32_)}.st34{fill:#fafafa}</style><path id="chain_1_" d="M440.8,159.8c-1.6,8.5-7.3,13.4-16.3,13.4c-12.2,0-19.9-9.4-19.9-24c0-13.8,7.7-23.2,19.9-23.2	c10.2,0,15.9,5.3,17.5,15.9h8.5v-22.8H442v8.9c-2.4-6.5-9.8-10.6-19.1-10.6c-17.9,0-29.7,12.6-29.7,31.7c0,19.5,12.2,32.1,30.9,32.1	c15.5,0,25.2-8.1,26.8-21.5C451,159.8,440.8,159.8,440.8,159.8z M478.6,93.1h-22v8.1h11V172h-11v8.1H490V172h-11.4v-26.4	c0-11.8,6.9-19.1,17.9-19.1c9.4,0,13.4,4.5,13.4,14.6v31.3h-11v8.1h32.9v-8.1h-11v-35.8c0-11.4-8.1-18.3-22-18.3	c-11,0-17.9,4.1-20.7,11.4L478.6,93.1L478.6,93.1z M551.8,137c0.8-6.9,5.7-10.6,15.5-10.6c4.9,0,8.9,1.2,11.4,3.3	c2.8,2.4,3.7,4.9,3.7,11.4v2.4c-6.9-0.4-9.8-0.4-11.4-0.4c-10.6,0-17.5,0.8-21.6,2.8c-7.3,3.3-11,8.9-11,17.1	c0,11.8,8.1,18.3,22.4,18.3c12.2,0,19.1-4.5,22.8-14.2v12.6h20.7v-8.1h-11v-30.9c0-9.4-1.2-13.4-4.9-17.1c-4.1-4.1-11-6.1-20.7-6.1	c-16.7,0-25.2,6.1-26.8,19.1L551.8,137L551.8,137z M582.7,151.6c-0.8,8.1-1.6,11.8-4.5,15c-3.3,4.5-8.9,6.9-15.9,6.9	c-7.7,0-12.6-4.1-12.6-10.6c0-3.7,1.6-6.5,4.5-8.5c3.3-2,8.1-3.3,17.5-3.3C576.2,151.2,578.6,151.2,582.7,151.6L582.7,151.6z M629,119.5h-22v8.1h11V172h-11v8.1h31.7V172H629L629,119.5L629,119.5z M616.9,93.1v11.8H629V93.1C629,93.1,616.9,93.1,616.9,93.1z M664.8,119.5h-21.5v8.1h11.4V172h-11.4v8.1h32.9V172h-11v-26.4c0-11.8,6.5-19.1,17.1-19.1c9.4,0,14.2,4.9,14.2,14.2V172H686v8.1	h32.1V172h-10.6v-35c0-12.2-7.7-19.1-22-19.1c-11,0-18.7,4.9-21.1,13.4v-11.8C664.4,119.5,664.8,119.5,664.8,119.5z" class="st34"/><path id="ad_1_" d="M20.8,137c0.8-6.9,5.7-10.6,15.5-10.6c4.9,0,8.9,1.2,11.4,3.3c2.8,2.4,3.7,4.9,3.7,11.4v2.4	c-6.9-0.4-9.8-0.4-11.4-0.4c-10.6,0-17.5,0.8-21.5,2.8c-7.3,3.3-11,8.9-11,17.1c0,11.8,8.1,18.3,22.4,18.3	c12.2,0,19.1-4.5,22.8-14.2v12.6h20.7v-8.1h-11v-30.9c0-9.4-1.2-13.4-4.9-17.1c-4.1-4.1-11-6.1-20.7-6.1c-16.7,0-25.2,6.1-26.8,19.1	L20.8,137L20.8,137z M51.7,151.6c-0.8,8.1-1.6,11.8-4.5,15c-3.3,4.5-8.9,6.9-15.9,6.9c-7.7,0-12.6-4.1-12.6-10.6	c0-3.7,1.6-6.5,4.5-8.5c3.3-2,8.1-3.3,17.5-3.3C45.2,151.2,47.6,151.2,51.7,151.6L51.7,151.6z M129.7,130.5	c-3.3-7.7-11.4-12.6-22.4-12.6c-17.9,0-28.9,12.2-28.9,32.1s11,31.7,29.7,31.7c11,0,19.9-5.7,22.4-13.8v12.2h21.5V172h-11V93.1	h-22.4v8.1h11.4L129.7,130.5L129.7,130.5z M109.8,126.4c12.6,0,20.3,8.9,20.3,24c0,13.8-8.1,23.2-20.3,23.2	c-12.6,0-20.3-8.9-20.3-24C89.5,135.4,97.6,126.4,109.8,126.4L109.8,126.4z" class="st34"/><g><rect width="17.9" height="17.9" x="345.7" y="248.8" class="st1" transform="matrix(0.7071 -0.7071 0.7071 0.7071 -78.3783 326.2249)"/><g><linearGradient id="SVGID_1_" x1="1425.15" x2="1366.415" y1="-877.579" y2="-817.726" gradientTransform="matrix(0.7071 -0.7071 0.7071 0.7071 -52.3344 1800.2231)" gradientUnits="userSpaceOnUse"><stop offset="0" style="stop-color:#4ee7d6"/><stop offset="1" style="stop-color:#1649ab"/></linearGradient><polygon points="335.5 251.7 348.1 238.6 335.5 226 322.9 238.6" class="st2"/><linearGradient id="SVGID_2_" x1="1411.926" x2="1353.192" y1="-890.555" y2="-830.702" gradientTransform="matrix(0.7071 -0.7071 0.7071 0.7071 -52.3344 1800.2231)" gradientUnits="userSpaceOnUse"><stop offset="0" style="stop-color:#4ee7d6"/><stop offset="1" style="stop-color:#1649ab"/></linearGradient><polygon points="316.8 232.5 329.4 219.9 316.8 207.3 304.2 219.9" class="st3"/><linearGradient id="SVGID_3_" x1="1398.416" x2="1339.681" y1="-903.814" y2="-843.96" gradientTransform="matrix(0.7071 -0.7071 0.7071 0.7071 -52.3344 1800.2231)" gradientUnits="userSpaceOnUse"><stop offset="0" style="stop-color:#4ee7d6"/><stop offset="1" style="stop-color:#1649ab"/></linearGradient><polygon points="297.7 213.4 310.3 200.8 297.7 188.2 285.1 200.8" class="st4"/><linearGradient id="SVGID_4_" x1="1384.655" x2="1325.921" y1="-917.316" y2="-857.463" gradientTransform="matrix(0.7071 -0.7071 0.7071 0.7071 -52.3344 1800.2231)" gradientUnits="userSpaceOnUse"><stop offset="0" style="stop-color:#4ee7d6"/><stop offset="1" style="stop-color:#1649ab"/></linearGradient><polygon points="278.6 231.3 291.2 218.7 278.6 206.1 266 218.7" class="st5"/><linearGradient id="SVGID_5_" x1="1344.038" x2="1285.304" y1="-957.174" y2="-897.321" gradientTransform="matrix(0.7071 -0.7071 0.7071 0.7071 -52.3344 1800.2231)" gradientUnits="userSpaceOnUse"><stop offset="0" style="stop-color:#4ee7d6"/><stop offset="1" style="stop-color:#1649ab"/></linearGradient><polygon points="222 251.7 234.6 238.6 222 226 209 238.6" class="st6"/><linearGradient id="SVGID_6_" x1="1357.658" x2="1298.924" y1="-943.808" y2="-883.955" gradientTransform="matrix(0.7071 -0.7071 0.7071 0.7071 -52.3344 1800.2231)" gradientUnits="userSpaceOnUse"><stop offset="0" style="stop-color:#4ee7d6"/><stop offset="1" style="stop-color:#1649ab"/></linearGradient><polygon points="240.7 232.5 253.3 219.9 240.7 207.3 228.1 219.9" class="st7"/><linearGradient id="SVGID_7_" x1="1371.427" x2="1312.692" y1="-930.298" y2="-870.445" gradientTransform="matrix(0.7071 -0.7071 0.7071 0.7071 -52.3344 1800.2231)" gradientUnits="userSpaceOnUse"><stop offset="0" style="stop-color:#4ee7d6"/><stop offset="1" style="stop-color:#1649ab"/></linearGradient><polygon points="259.9 188.2 247.2 200.8 259.9 213.4 272.5 200.8" class="st8"/><linearGradient id="SVGID_8_" x1="1384.902" x2="1326.167" y1="-917.075" y2="-857.221" gradientTransform="matrix(0.7071 -0.7071 0.7071 0.7071 -52.3344 1800.2231)" gradientUnits="userSpaceOnUse"><stop offset="0" style="stop-color:#4ee7d6"/><stop offset="1" style="stop-color:#1649ab"/></linearGradient><polygon points="266 182.1 278.6 194.7 291.2 182.1 278.6 169.1" class="st9"/></g><rect width="17.9" height="17.9" x="383.4" y="248.8" class="st1" transform="matrix(0.7071 -0.7071 0.7071 0.7071 -67.3447 352.9459)"/><rect width="17.9" height="17.9" x="364.8" y="229.5" class="st1" transform="matrix(0.7071 -0.7071 0.7071 0.7071 -59.1785 334.1035)"/><rect width="17.9" height="17.9" x="345.7" y="211" class="st1" transform="matrix(0.7071 -0.7071 0.7071 0.7071 -51.6573 315.1912)"/><rect width="17.9" height="17.9" x="383.5" y="211" class="st1" transform="matrix(0.7071 -0.7071 0.7071 0.7071 -40.6237 341.9123)"/><g><linearGradient id="SVGID_9_" x1="1386.123" x2="1445.976" y1="-878.348" y2="-815.139" gradientTransform="matrix(0.7071 -0.7071 0.7071 0.7071 -52.3344 1800.2231)" gradientUnits="userSpaceOnUse"><stop offset="0" style="stop-color:#f7bd44"/><stop offset="1" style="stop-color:#1649ab"/></linearGradient><polygon points="373.3 213.4 386.3 200.8 373.3 188.2 360.7 200.8" class="st10"/><linearGradient id="SVGID_10_" x1="1399.477" x2="1459.33" y1="-890.993" y2="-827.783" gradientTransform="matrix(0.7071 -0.7071 0.7071 0.7071 -52.3344 1800.2231)" gradientUnits="userSpaceOnUse"><stop offset="0" style="stop-color:#f7bd44"/><stop offset="1" style="stop-color:#1649ab"/></linearGradient><polygon points="354.6 194.7 367.2 182.1 354.6 169.1 342 182.1" class="st11"/><linearGradient id="SVGID_11_" x1="1412.822" x2="1472.676" y1="-903.63" y2="-840.42" gradientTransform="matrix(0.7071 -0.7071 0.7071 0.7071 -52.3344 1800.2231)" gradientUnits="userSpaceOnUse"><stop offset="0" style="stop-color:#f7bd44"/><stop offset="1" style="stop-color:#1649ab"/></linearGradient><polygon points="335.5 175.6 348.1 163 335.5 150.4 322.9 163" class="st12"/><linearGradient id="SVGID_12_" x1="1427.048" x2="1486.901" y1="-917.1" y2="-853.891" gradientTransform="matrix(0.7071 -0.7071 0.7071 0.7071 -52.3344 1800.2231)" gradientUnits="userSpaceOnUse"><stop offset="0" style="stop-color:#f7bd44"/><stop offset="1" style="stop-color:#1649ab"/></linearGradient><polygon points="353.4 156.5 366 143.9 353.4 131.3 340.8 143.9" class="st13"/><linearGradient id="SVGID_13_" x1="1426.323" x2="1486.177" y1="-916.414" y2="-853.204" gradientTransform="matrix(0.7071 -0.7071 0.7071 0.7071 -52.3344 1800.2231)" gradientUnits="userSpaceOnUse"><stop offset="0" style="stop-color:#f7bd44"/><stop offset="1" style="stop-color:#1649ab"/></linearGradient><polygon points="316.8 156.5 329.4 143.9 316.8 131.3 304.2 143.9" class="st14"/><linearGradient id="SVGID_14_" x1="1440.27" x2="1500.123" y1="-929.62" y2="-866.41" gradientTransform="matrix(0.7071 -0.7071 0.7071 0.7071 -52.3344 1800.2231)" gradientUnits="userSpaceOnUse"><stop offset="0" style="stop-color:#f7bd44"/><stop offset="1" style="stop-color:#1649ab"/></linearGradient><polygon points="335.5 137.8 348.1 125.2 335.5 112.6 322.9 125.2" class="st15"/><linearGradient id="SVGID_15_" x1="1454.52" x2="1514.373" y1="-943.113" y2="-879.904" gradientTransform="matrix(0.7071 -0.7071 0.7071 0.7071 -52.3344 1800.2231)" gradientUnits="userSpaceOnUse"><stop offset="0" style="stop-color:#f7bd44"/><stop offset="1" style="stop-color:#1649ab"/></linearGradient><polygon points="354.6 118.7 367.2 106.1 354.6 93.5 342 106.1" class="st16"/><linearGradient id="SVGID_16_" x1="1468.614" x2="1528.467" y1="-956.459" y2="-893.25" gradientTransform="matrix(0.7071 -0.7071 0.7071 0.7071 -52.3344 1800.2231)" gradientUnits="userSpaceOnUse"><stop offset="0" style="stop-color:#f7bd44"/><stop offset="1" style="stop-color:#1649ab"/></linearGradient><polygon points="360.7 87 373.3 100 386.3 87 373.3 74.4" class="st17"/></g><rect width="17.9" height="17.9" x="156.2" y="248.7" class="st1" transform="matrix(0.7071 -0.7071 0.7071 0.7071 -133.8355 192.2617)"/><rect width="17.9" height="17.9" x="194" y="248.8" class="st1" transform="matrix(0.7071 -0.7071 0.7071 0.7071 -122.8016 218.9827)"/><rect width="17.9" height="17.9" x="174.8" y="229.7" class="st1" transform="matrix(0.7071 -0.7071 0.7071 0.7071 -114.9231 199.7832)"/><rect width="17.9" height="17.9" x="156.3" y="211" class="st1" transform="matrix(0.7071 -0.7071 0.7071 0.7071 -107.1143 181.2277)"/><rect width="17.9" height="17.9" x="194" y="211" class="st1" transform="matrix(0.7071 -0.7071 0.7071 0.7071 -96.0806 207.949)"/><g><linearGradient id="SVGID_17_" x1="1343.706" x2="1281.055" y1="-919.424" y2="-980.396" gradientTransform="matrix(0.7071 -0.7071 0.7071 0.7071 -52.3344 1800.2231)" gradientUnits="userSpaceOnUse"><stop offset="0" style="stop-color:#d775de"/><stop offset="1" style="stop-color:#1649ab"/></linearGradient><polygon points="183.8 213.4 196.4 200.8 183.8 188.2 171.2 200.8" class="st18"/><linearGradient id="SVGID_18_" x1="1356.71" x2="1294.06" y1="-932.786" y2="-993.758" gradientTransform="matrix(0.7071 -0.7071 0.7071 0.7071 -52.3344 1800.2231)" gradientUnits="userSpaceOnUse"><stop offset="0" style="stop-color:#d775de"/><stop offset="1" style="stop-color:#1649ab"/></linearGradient><polygon points="202.9 194.7 215.5 182.1 202.9 169.1 190.3 182.1" class="st19"/><linearGradient id="SVGID_19_" x1="1369.715" x2="1307.064" y1="-946.149" y2="-1007.121" gradientTransform="matrix(0.7071 -0.7071 0.7071 0.7071 -52.3344 1800.2231)" gradientUnits="userSpaceOnUse"><stop offset="0" style="stop-color:#d775de"/><stop offset="1" style="stop-color:#1649ab"/></linearGradient><polygon points="222 175.6 234.6 163 222 150.4 209 163" class="st20"/><linearGradient id="SVGID_20_" x1="1382.865" x2="1320.215" y1="-959.661" y2="-1020.633" gradientTransform="matrix(0.7071 -0.7071 0.7071 0.7071 -52.3344 1800.2231)" gradientUnits="userSpaceOnUse"><stop offset="0" style="stop-color:#d775de"/><stop offset="1" style="stop-color:#1649ab"/></linearGradient><polygon points="240.7 156.5 253.3 143.9 240.7 131.3 228.1 143.9" class="st21"/><linearGradient id="SVGID_21_" x1="1383.223" x2="1320.573" y1="-960.029" y2="-1021" gradientTransform="matrix(0.7071 -0.7071 0.7071 0.7071 -52.3344 1800.2231)" gradientUnits="userSpaceOnUse"><stop offset="0" style="stop-color:#d775de"/><stop offset="1" style="stop-color:#1649ab"/></linearGradient><polygon points="202.9 156.5 215.5 143.9 202.9 131.3 190.3 143.9" class="st22"/><linearGradient id="SVGID_22_" x1="1396.086" x2="1333.435" y1="-973.246" y2="-1034.217" gradientTransform="matrix(0.7071 -0.7071 0.7071 0.7071 -52.3344 1800.2231)" gradientUnits="userSpaceOnUse"><stop offset="0" style="stop-color:#d775de"/><stop offset="1" style="stop-color:#1649ab"/></linearGradient><polygon points="222 137.8 234.6 125.2 222 112.6 209 125.2" class="st23"/><linearGradient id="SVGID_23_" x1="1409.594" x2="1346.944" y1="-987.126" y2="-1048.098" gradientTransform="matrix(0.7071 -0.7071 0.7071 0.7071 -52.3344 1800.2231)" gradientUnits="userSpaceOnUse"><stop offset="0" style="stop-color:#d775de"/><stop offset="1" style="stop-color:#1649ab"/></linearGradient><polygon points="202.9 118.7 215.5 106.1 202.9 93.5 190.3 106.1" class="st24"/><linearGradient id="SVGID_24_" x1="1422.96" x2="1360.31" y1="-1000.86" y2="-1061.832" gradientTransform="matrix(0.7071 -0.7071 0.7071 0.7071 -52.3344 1800.2231)" gradientUnits="userSpaceOnUse"><stop offset="0" style="stop-color:#d775de"/><stop offset="1" style="stop-color:#1649ab"/></linearGradient><polygon points="171.2 87 183.8 100 196.4 87 183.8 74.4" class="st25"/></g><rect width="17.9" height="17.9" x="156.3" y="59.3" class="st1" transform="matrix(0.7071 -0.7071 0.7071 0.7071 0.128 136.8047)"/><rect width="17.9" height="17.9" x="194" y="59.3" class="st1" transform="matrix(0.7071 -0.7071 0.7071 0.7071 11.1613 163.5259)"/><rect width="17.9" height="17.9" x="174.8" y="40.2" class="st1" transform="matrix(0.7071 -0.7071 0.7071 0.7071 19.04 144.326)"/><rect width="17.9" height="17.9" x="156.3" y="21.5" class="st1" transform="matrix(0.7071 -0.7071 0.7071 0.7071 26.8489 125.7708)"/><g><linearGradient id="SVGID_25_" x1="1410.819" x2="1475.147" y1="-969.687" y2="-1032.896" gradientTransform="matrix(0.7071 -0.7071 0.7071 0.7071 -52.3344 1800.2231)" gradientUnits="userSpaceOnUse"><stop offset="0" style="stop-color:#da6699"/><stop offset=".144" style="stop-color:#d66599"/><stop offset=".287" style="stop-color:#ca649a"/><stop offset=".43" style="stop-color:#b6619c"/><stop offset=".573" style="stop-color:#9a5d9f"/><stop offset=".716" style="stop-color:#7657a2"/><stop offset=".858" style="stop-color:#4a51a6"/><stop offset=".998" style="stop-color:#1749ab"/><stop offset="1" style="stop-color:#1649ab"/></linearGradient><polygon points="259.9 100 272.5 87 259.9 74.4 247.2 87" class="st26"/><linearGradient id="SVGID_26_" x1="1397.31" x2="1461.639" y1="-983.434" y2="-1046.644" gradientTransform="matrix(0.7071 -0.7071 0.7071 0.7071 -52.3344 1800.2231)" gradientUnits="userSpaceOnUse"><stop offset="0" style="stop-color:#da6699"/><stop offset=".144" style="stop-color:#d66599"/><stop offset=".287" style="stop-color:#ca649a"/><stop offset=".43" style="stop-color:#b6619c"/><stop offset=".573" style="stop-color:#9a5d9f"/><stop offset=".716" style="stop-color:#7657a2"/><stop offset=".858" style="stop-color:#4a51a6"/><stop offset=".998" style="stop-color:#1749ab"/><stop offset="1" style="stop-color:#1649ab"/></linearGradient><polygon points="240.7 80.9 253.3 68.3 240.7 55.7 228.1 68.3" class="st27"/><linearGradient id="SVGID_27_" x1="1383.942" x2="1448.27" y1="-997.039" y2="-1060.249" gradientTransform="matrix(0.7071 -0.7071 0.7071 0.7071 -52.3344 1800.2231)" gradientUnits="userSpaceOnUse"><stop offset="0" style="stop-color:#da6699"/><stop offset=".144" style="stop-color:#d66599"/><stop offset=".287" style="stop-color:#ca649a"/><stop offset=".43" style="stop-color:#b6619c"/><stop offset=".573" style="stop-color:#9a5d9f"/><stop offset=".716" style="stop-color:#7657a2"/><stop offset=".858" style="stop-color:#4a51a6"/><stop offset=".998" style="stop-color:#1749ab"/><stop offset="1" style="stop-color:#1649ab"/></linearGradient><polygon points="222 61.8 234.6 49.2 222 36.6 209 49.2" class="st28"/><linearGradient id="SVGID_28_" x1="1424.045" x2="1488.373" y1="-956.226" y2="-1019.436" gradientTransform="matrix(0.7071 -0.7071 0.7071 0.7071 -52.3344 1800.2231)" gradientUnits="userSpaceOnUse"><stop offset="0" style="stop-color:#da6699"/><stop offset=".144" style="stop-color:#d66599"/><stop offset=".287" style="stop-color:#ca649a"/><stop offset=".43" style="stop-color:#b6619c"/><stop offset=".573" style="stop-color:#9a5d9f"/><stop offset=".716" style="stop-color:#7657a2"/><stop offset=".858" style="stop-color:#4a51a6"/><stop offset=".998" style="stop-color:#1749ab"/><stop offset="1" style="stop-color:#1649ab"/></linearGradient><polygon points="278.6 118.7 291.2 106.1 278.6 93.5 266 106.1" class="st29"/><linearGradient id="SVGID_29_" x1="1423.82" x2="1488.148" y1="-956.455" y2="-1019.664" gradientTransform="matrix(0.7071 -0.7071 0.7071 0.7071 -52.3344 1800.2231)" gradientUnits="userSpaceOnUse"><stop offset="0" style="stop-color:#da6699"/><stop offset=".144" style="stop-color:#d66599"/><stop offset=".287" style="stop-color:#ca649a"/><stop offset=".43" style="stop-color:#b6619c"/><stop offset=".573" style="stop-color:#9a5d9f"/><stop offset=".716" style="stop-color:#7657a2"/><stop offset=".858" style="stop-color:#4a51a6"/><stop offset=".998" style="stop-color:#1749ab"/><stop offset="1" style="stop-color:#1649ab"/></linearGradient><polygon points="278.6 56.9 266 69.5 278.6 82.1 291.2 69.5" class="st30"/><linearGradient id="SVGID_30_" x1="1437.321" x2="1501.65" y1="-942.715" y2="-1005.925" gradientTransform="matrix(0.7071 -0.7071 0.7071 0.7071 -52.3344 1800.2231)" gradientUnits="userSpaceOnUse"><stop offset="0" style="stop-color:#da6699"/><stop offset=".144" style="stop-color:#d66599"/><stop offset=".287" style="stop-color:#ca649a"/><stop offset=".43" style="stop-color:#b6619c"/><stop offset=".573" style="stop-color:#9a5d9f"/><stop offset=".716" style="stop-color:#7657a2"/><stop offset=".858" style="stop-color:#4a51a6"/><stop offset=".998" style="stop-color:#1749ab"/><stop offset="1" style="stop-color:#1649ab"/></linearGradient><polygon points="297.7 100 310.3 87 297.7 74.4 285.1 87" class="st31"/><linearGradient id="SVGID_31_" x1="1450.6" x2="1514.928" y1="-929.201" y2="-992.411" gradientTransform="matrix(0.7071 -0.7071 0.7071 0.7071 -52.3344 1800.2231)" gradientUnits="userSpaceOnUse"><stop offset="0" style="stop-color:#da6699"/><stop offset=".144" style="stop-color:#d66599"/><stop offset=".287" style="stop-color:#ca649a"/><stop offset=".43" style="stop-color:#b6619c"/><stop offset=".573" style="stop-color:#9a5d9f"/><stop offset=".716" style="stop-color:#7657a2"/><stop offset=".858" style="stop-color:#4a51a6"/><stop offset=".998" style="stop-color:#1749ab"/><stop offset="1" style="stop-color:#1649ab"/></linearGradient><polygon points="316.8 80.9 329.4 68.3 316.8 55.7 304.2 68.3" class="st32"/><linearGradient id="SVGID_32_" x1="1463.591" x2="1527.919" y1="-915.98" y2="-979.19" gradientTransform="matrix(0.7071 -0.7071 0.7071 0.7071 -52.3344 1800.2231)" gradientUnits="userSpaceOnUse"><stop offset="0" style="stop-color:#da6699"/><stop offset=".144" style="stop-color:#d66599"/><stop offset=".287" style="stop-color:#ca649a"/><stop offset=".43" style="stop-color:#b6619c"/><stop offset=".573" style="stop-color:#9a5d9f"/><stop offset=".716" style="stop-color:#7657a2"/><stop offset=".858" style="stop-color:#4a51a6"/><stop offset=".998" style="stop-color:#1749ab"/><stop offset="1" style="stop-color:#1649ab"/></linearGradient><polygon points="322.9 49.2 335.5 61.8 348.1 49.2 335.5 36.6" class="st33"/></g><rect width="17.9" height="17.9" x="194.1" y="21.6" class="st1" transform="matrix(0.7071 -0.7071 0.7071 0.7071 37.8825 152.4918)"/><rect width="17.9" height="17.9" x="345.7" y="59.3" class="st1" transform="matrix(0.7071 -0.7071 0.7071 0.7071 55.5849 270.7679)"/><rect width="17.9" height="17.9" x="383.5" y="59.4" class="st1" transform="matrix(0.7071 -0.7071 0.7071 0.7071 66.6182 297.4891)"/><rect width="17.9" height="17.9" x="364.8" y="40.1" class="st1" transform="matrix(0.7071 -0.7071 0.7071 0.7071 74.7848 278.6466)"/><rect width="17.9" height="17.9" x="345.7" y="21.6" class="st1" transform="matrix(0.7071 -0.7071 0.7071 0.7071 82.3061 259.7339)"/><rect width="17.9" height="17.9" x="383.5" y="21.6" class="st1" transform="matrix(0.7071 -0.7071 0.7071 0.7071 93.3398 286.4552)"/></g></svg>