<svg xmlns="http://www.w3.org/2000/svg" xmlns:xlink="http://www.w3.org/1999/xlink" width="20" height="20" version="1.1" viewBox="0 0 20 20"><title>WWW</title><desc>Created with Sketch.</desc><g id="Symbols" fill="none" fill-rule="evenodd" stroke="none" stroke-width="1"><g id="WWW" stroke="#F1F5F8"><circle id="Oval" cx="10" cy="10" r="9"/><g id="Group-2" stroke-linecap="round" transform="translate(3.124033, 8.434115)"><g id="Group"><path id="Line" d="M0.406065113,0.54142015 L1.21819534,2.70710075"/><path id="Line" d="M2.04260852,0.549764789 L1.20591238,2.69875611"/><path id="Line" d="M2.03032556,0.54142015 L2.84245579,2.70710075"/><path id="Line" d="M3.66686897,0.549764789 L2.83017283,2.69875611"/></g><g id="Group" transform="translate(4.872781, 0.000000)"><path id="Line" d="M0.406065113,0.54142015 L1.21819534,2.70710075"/><path id="Line" d="M2.04260852,0.549764789 L1.20591238,2.69875611"/><path id="Line" d="M2.03032556,0.54142015 L2.84245579,2.70710075"/><path id="Line" d="M3.66686897,0.549764789 L2.83017283,2.69875611"/></g><g id="Group-Copy" transform="translate(9.745563, 0.000000)"><path id="Line" d="M0.406065113,0.54142015 L1.21819534,2.70710075"/><path id="Line" d="M2.04260852,0.549764789 L1.20591238,2.69875611"/><path id="Line" d="M2.03032556,0.54142015 L2.84245579,2.70710075"/><path id="Line" d="M3.66686897,0.549764789 L2.83017283,2.69875611"/></g></g><path id="Line-3" stroke-linecap="round" d="M4.5,13.5 L15.5,13.5"/></g></g></svg>